<?xml version="1.0" standalone="no"?><!-- Generator: Gravit.io --><svg xmlns="http://www.w3.org/2000/svg" xmlns:xlink="http://www.w3.org/1999/xlink" style="isolation:isolate" viewBox="0 0 500 500" width="500" height="500"><defs><clipPath id="_clipPath_9HIBJ6JHDqNSr88DttzCdAX8D3kpBYI3"><rect width="500" height="500"/></clipPath></defs><g clip-path="url(#_clipPath_9HIBJ6JHDqNSr88DttzCdAX8D3kpBYI3)"><rect width="500" height="500" style="fill:rgb(93,93,93)"/><g id="Group"><g id="Group"><path d="M 76.922 55.42 L 203.796 55.562 C 218.602 55.578 230.61 67.613 230.594 82.42 L 230.532 137.465 C 230.516 152.272 218.481 164.28 203.674 164.263 L 76.801 164.121 C 61.994 164.105 49.986 152.07 50.003 137.263 L 50.064 82.218 C 50.081 67.411 62.116 55.403 76.922 55.42 Z" style="stroke:none;fill:#4A86E8;stroke-miterlimit:10;"/><path d=" M 50 139.763 C 50.047 97.767 90.531 63.717 140.35 63.773 C 190.168 63.828 230.576 97.969 230.529 139.965 C 230.482 181.96 189.998 216.01 140.18 215.955 C 90.361 215.899 49.953 181.759 50 139.763 Z " fill="rgb(74,134,232)"/></g><g id="Group"><path d="M 294.321 57.019 L 421.158 54.008 C 435.961 53.656 448.264 65.389 448.616 80.191 L 449.922 135.221 C 450.274 150.024 438.541 162.327 423.738 162.678 L 296.901 165.69 C 282.098 166.041 269.795 154.309 269.444 139.506 L 268.137 84.476 C 267.786 69.674 279.518 57.37 294.321 57.019 Z" style="stroke:none;fill:#4A86E8;stroke-miterlimit:10;"/><path d=" M 269.503 142.005 C 268.506 100.021 308.132 64.975 357.936 63.793 C 407.741 62.611 448.985 95.736 449.982 137.72 C 450.978 179.704 411.353 214.75 361.548 215.932 C 311.744 217.115 270.5 183.989 269.503 142.005 Z " fill="rgb(74,134,232)"/></g><g id="Group"><path d="M 80.865 71.98 L 196.758 72.11 C 209.216 72.124 219.32 82.25 219.306 94.708 L 219.26 135.832 C 219.246 148.291 209.12 158.394 196.661 158.381 L 80.769 158.251 C 68.31 158.237 58.207 148.111 58.221 135.652 L 58.267 94.528 C 58.281 82.07 68.407 71.966 80.865 71.98 Z" style="stroke:none;fill:#5D5D5D;stroke-miterlimit:10;"/><path d=" M 58.217 138.918 C 58.255 105.588 94.364 78.568 138.804 78.618 C 183.244 78.668 219.293 105.768 219.256 139.098 C 219.219 172.427 183.109 199.447 138.669 199.397 C 94.229 199.347 58.18 172.247 58.217 138.918 Z " fill="rgb(93,93,93)"/></g><g id="Group"><path d="M 298.674 73.476 L 414.534 70.725 C 426.989 70.43 437.341 80.302 437.637 92.757 L 438.613 133.869 C 438.909 146.324 429.037 156.676 416.582 156.972 L 300.722 159.723 C 288.267 160.018 277.915 150.147 277.619 137.692 L 276.643 96.579 C 276.347 84.124 286.219 73.772 298.674 73.476 Z" style="stroke:none;fill:#5D5D5D;stroke-miterlimit:10;"/><path d=" M 277.697 140.956 C 276.906 107.635 312.333 79.727 356.76 78.672 C 401.188 77.617 437.899 103.813 438.69 137.133 C 439.481 170.454 404.054 198.362 359.627 199.417 C 315.199 200.472 278.488 174.276 277.697 140.956 Z " fill="rgb(93,93,93)"/></g><path d=" M 268.822 128.397 C 273.507 126.315 276.774 121.617 276.774 116.163 L 276.774 80.514 C 276.774 73.12 270.771 67.117 263.377 67.117 L 232.634 67.117 C 225.24 67.117 219.237 73.12 219.237 80.514 L 219.237 116.163 C 219.237 123.016 224.393 128.674 231.037 129.457 C 233.013 119.637 240.78 112.306 250.048 112.306 C 258.979 112.306 266.517 119.114 268.822 128.397 Z " fill="rgb(74,134,232)"/></g><g transform="matrix(0.822,0,0,0.822,39,232)"><text transform="matrix(1,0,0,1,0,112.2)" style="font-family:&quot;Rubik&quot;;font-weight:700;font-size:120px;font-style:normal;fill:#4a86e8;stroke:none;">Blue Rim</text></g><g transform="matrix(0.822,0,0,0.822,79.101,356)"><text transform="matrix(1,0,0,1,0.09,84.15)" style="font-family:&quot;Rubik&quot;;font-weight:700;font-size:90px;font-style:italic;fill:#ffffff;stroke:none;">&lt;Design/&gt;</text></g></g></svg>