<?xml version="1.0" standalone="no"?><!-- Generator: Gravit.io --><svg xmlns="http://www.w3.org/2000/svg" xmlns:xlink="http://www.w3.org/1999/xlink" style="isolation:isolate" viewBox="-1474 -95 4000 1619.628" width="4000" height="1619.628"><g id="Group"><g id="Group"><path d="M -1204.776 -80.801 L 63.956 -79.383 C 212.024 -79.218 332.103 41.13 331.937 189.198 L 331.322 739.649 C 331.157 887.717 210.809 1007.796 62.741 1007.63 L -1205.99 1006.212 C -1354.059 1006.047 -1474.137 885.699 -1473.972 737.631 L -1473.356 187.18 C -1473.191 39.112 -1352.844 -80.967 -1204.776 -80.801 Z" style="stroke:none;fill:#4A86E8;stroke-miterlimit:10;"/><path d=" M -1474 762.628 C -1473.53 342.671 -1068.687 2.171 -570.502 2.728 C -72.318 3.285 331.763 344.689 331.294 764.646 C 330.825 1184.603 -74.019 1525.103 -572.203 1524.546 C -1070.388 1523.989 -1474.469 1182.585 -1474 762.628 Z " fill="rgb(74,134,232)"/></g><g id="Group"><path d="M 969.21 -64.81 L 2237.585 -94.923 C 2385.611 -98.437 2508.643 18.888 2512.158 166.915 L 2525.223 717.211 C 2528.737 865.238 2411.411 988.27 2263.385 991.784 L 995.01 1021.898 C 846.983 1025.412 723.951 908.086 720.436 760.06 L 707.372 209.763 C 703.857 61.737 821.183 -61.296 969.21 -64.81 Z" style="stroke:none;fill:#4A86E8;stroke-miterlimit:10;"/><path d=" M 721.03 785.05 C 711.062 365.211 1107.319 14.755 1605.363 2.93 C 2103.407 -8.894 2515.848 322.362 2525.816 742.201 C 2535.784 1162.04 2139.527 1512.496 1641.483 1524.321 C 1143.439 1536.145 730.997 1204.889 721.03 785.05 Z " fill="rgb(74,134,232)"/></g><g id="Group"><path d="M -1165.345 84.801 L -6.423 86.096 C 118.163 86.236 219.198 187.497 219.059 312.082 L 218.599 723.324 C 218.46 847.91 117.199 948.944 -7.387 948.805 L -1166.309 947.51 C -1290.895 947.371 -1391.93 846.11 -1391.791 721.524 L -1391.331 310.282 C -1391.192 185.697 -1289.931 84.662 -1165.345 84.801 Z" style="stroke:none;fill:#5D5D5D;stroke-miterlimit:10;"/><path d=" M -1391.827 754.175 C -1391.455 420.876 -1030.357 150.682 -585.958 151.179 C -141.558 151.676 218.935 422.676 218.562 755.975 C 218.19 1089.274 -142.908 1359.468 -587.307 1358.971 C -1031.707 1358.475 -1392.2 1087.475 -1391.827 754.175 Z " fill="rgb(93,93,93)"/></g><g id="Group"><path d="M 1012.743 99.761 L 2171.34 72.254 C 2295.891 69.297 2399.411 168.016 2402.368 292.567 L 2412.129 703.693 C 2415.086 828.243 2316.367 931.764 2191.816 934.721 L 1033.22 962.227 C 908.669 965.184 805.149 866.466 802.192 741.915 L 792.431 330.789 C 789.474 206.238 888.193 102.718 1012.743 99.761 Z" style="stroke:none;fill:#5D5D5D;stroke-miterlimit:10;"/><path d=" M 802.967 774.557 C 795.056 441.351 1149.328 162.267 1593.602 151.719 C 2037.876 141.172 2404.993 403.129 2412.904 736.335 C 2420.814 1069.54 2066.543 1348.625 1622.268 1359.172 C 1177.994 1369.72 810.877 1107.763 802.967 774.557 Z " fill="rgb(93,93,93)"/></g><path d=" M 721.614 660.605 L 780.342 660.605 C 787.736 660.605 793.739 654.602 793.739 647.208 L 793.739 49.565 C 793.739 42.171 787.736 36.168 780.342 36.168 L 231.764 36.168 C 224.37 36.168 218.367 42.171 218.367 49.565 L 218.367 647.208 C 218.367 654.602 224.37 660.605 231.764 660.605 L 331.341 660.605 L 331.341 510.157 C 331.341 497.963 341.241 488.063 353.435 488.063 L 699.52 488.063 C 711.714 488.063 721.614 497.963 721.614 510.157 L 721.614 660.605 Z " fill="rgb(74,134,232)"/></g></svg>