<?xml version="1.0" standalone="no"?><!-- Generator: Gravit.io --><svg xmlns="http://www.w3.org/2000/svg" xmlns:xlink="http://www.w3.org/1999/xlink" style="isolation:isolate" viewBox="-1499 -564 4000 1902.585" width="4000" height="1902.585"><g id="Group"><path d="M 966.71 -529.755 L 2190.084 -563.885 C 2350.529 -568.361 2483.423 -441.71 2486.665 -281.235 L 2500.716 414.21 C 2503.958 574.685 2376.329 708.604 2215.884 713.08 L 992.51 747.21 C 832.065 751.686 699.172 625.035 695.929 464.56 L 681.879 -230.885 C 678.636 -391.36 806.265 -525.279 966.71 -529.755 Z" style="stroke:none;fill:#1982C4;stroke-miterlimit:10;"/><path d=" M 696.03 469.523 C 686.062 -23.82 1082.319 -435.633 1580.363 -449.527 C 2078.407 -463.422 2490.848 -74.17 2500.816 419.173 C 2510.784 912.517 2114.527 1324.329 1616.483 1338.224 C 1118.439 1352.118 705.997 962.867 696.03 469.523 Z " fill="rgb(25,130,196)"/><path d="M -1207.237 -547.889 L 16.418 -546.281 C 176.925 -546.071 307.113 -415.588 306.96 -255.08 L 306.299 440.605 C 306.146 601.113 175.71 731.254 15.203 731.043 L -1208.452 729.436 C -1368.96 729.225 -1499.148 598.742 -1498.995 438.234 L -1498.333 -257.451 C -1498.181 -417.959 -1367.745 -548.099 -1207.237 -547.889 Z" style="stroke:none;fill:#1982C4;stroke-miterlimit:10;"/><path d=" M -1499 443.176 C -1498.53 -50.306 -1093.687 -450.419 -595.502 -449.765 C -97.318 -449.111 306.763 -47.935 306.294 445.547 C 305.825 939.03 -99.019 1339.143 -597.203 1338.489 C -1095.388 1337.835 -1499.469 936.659 -1499 443.176 Z " fill="rgb(25,130,196)"/><path d="M -1171.381 -353.298 L -50.387 -351.826 C 84.666 -351.648 194.207 -241.859 194.078 -106.807 L 193.579 417.548 C 193.451 552.6 83.701 662.101 -51.351 661.924 L -1172.346 660.452 C -1307.398 660.274 -1416.939 550.485 -1416.81 415.433 L -1416.312 -108.922 C -1416.183 -243.974 -1306.434 -353.475 -1171.381 -353.298 Z" style="stroke:none;fill:#5D5D5D;stroke-miterlimit:10;"/><path d=" M -1416.827 433.243 C -1416.455 41.591 -1055.357 -275.907 -610.958 -275.324 C -166.558 -274.74 193.935 43.706 193.562 435.358 C 193.19 827.011 -167.908 1144.509 -612.307 1143.926 C -1056.707 1143.342 -1417.2 824.896 -1416.827 433.243 Z " fill="rgb(93,93,93)"/><path d="M 1006.676 -336.272 L 2127.408 -367.538 C 2262.407 -371.304 2374.225 -264.739 2376.953 -129.714 L 2387.543 394.455 C 2390.272 529.48 2282.884 642.16 2147.884 645.926 L 1027.152 677.193 C 892.152 680.959 780.335 574.394 777.606 439.369 L 767.016 -84.8 C 764.288 -219.825 871.676 -332.506 1006.676 -336.272 Z" style="stroke:none;fill:#5D5D5D;stroke-miterlimit:10;"/><path d=" M 777.967 457.194 C 770.056 65.651 1124.328 -262.294 1568.602 -274.689 C 2012.876 -287.083 2379.993 20.737 2387.904 412.279 C 2395.814 803.822 2041.543 1131.767 1597.268 1144.162 C 1152.994 1156.556 785.877 848.736 777.967 457.194 Z " fill="rgb(93,93,93)"/><path d=" M 696.614 323.291 L 755.342 323.291 C 762.736 323.291 768.739 317.288 768.739 309.894 L 768.739 -397.073 C 768.739 -404.468 762.736 -410.471 755.342 -410.471 L 206.764 -410.471 C 199.37 -410.471 193.367 -404.468 193.367 -397.073 L 193.367 309.894 C 193.367 317.288 199.37 323.291 206.764 323.291 L 306.341 323.291 L 306.341 142.635 C 306.341 130.441 316.241 120.541 328.435 120.541 L 674.52 120.541 C 686.714 120.541 696.614 130.441 696.614 142.635 L 696.614 323.291 Z " fill="rgb(25,130,196)"/></g></svg>